Coordinates
version=1
nRows=7
nColumns=40
inDegrees=yes

Units are S.I. units (second, meters, Newtons, ...)
If the header above contains a line with 'inDegrees', this indicates whether rotational values are in degrees (yes) or radians (no).

endheader
time	pelvis_tilt	pelvis_list	pelvis_rotation	pelvis_tx	pelvis_ty	pelvis_tz	hip_flexion_r	hip_adduction_r	hip_rotation_r	knee_angle_r	knee_angle_r_beta	ankle_angle_r	subtalar_angle_r	mtp_angle_r	hip_flexion_l	hip_adduction_l	hip_rotation_l	knee_angle_l	knee_angle_l_beta	ankle_angle_l	subtalar_angle_l	mtp_angle_l	lumbar_extension	lumbar_bending	lumbar_rotation	arm_flex_r	arm_add_r	arm_rot_r	elbow_flex_r	pro_sup_r	wrist_flex_r	wrist_dev_r	arm_flex_l	arm_add_l	arm_rot_l	elbow_flex_l	pro_sup_l	wrist_flex_l	wrist_dev_l
      6.16500000	     41.69651114	      0.15495503	   -177.91122592	      0.42063863	      0.67203455	     -0.60389043	     97.10562834	    -12.76115175	      5.38248645	     63.29491456	      1.10470466	     13.39633871	      0.00000000	      0.00000000	     97.09745595	    -14.14280291	      0.03505214	     62.94709168	      1.09863400	     10.81561017	      0.00000000	      0.00000000	    -40.40012491	     -4.89434025	      2.50698457	     60.76695026	    -20.53563144	     28.24495472	     25.57984637	     75.06128968	      0.00000000	      0.00000000	     70.87547600	     -0.05424607	      8.53655065	     13.13740411	     24.17696770	      0.00000000	      0.00000000
      6.17000000	     41.55130193	      0.24646153	   -177.89706921	      0.42084060	      0.67140617	     -0.60381042	     97.06164232	    -12.77051181	      5.33635270	     63.46933576	      1.10774888	     13.53598931	      0.00000000	      0.00000000	     97.14810971	    -14.16188227	      0.15256244	     63.16615111	      1.10245731	     10.84913546	      0.00000000	      0.00000000	    -40.40357895	     -4.76887768	      2.59900215	     61.09534803	    -21.54204751	     31.43571743	     25.95192710	     78.92153451	      0.00000000	      0.00000000	     70.76304838	     -0.05505619	      8.73939690	     13.20054731	     24.25147252	      0.00000000	      0.00000000
      6.17500000	     41.37819376	      0.12829233	   -177.83054686	      0.42089073	      0.67098658	     -0.60381379	     97.04326540	    -12.84110238	      5.48545397	     63.66181082	      1.11110821	     13.56749716	      0.00000000	      0.00000000	     97.01838363	    -14.15414840	     -0.01981895	     63.27352769	      1.10433139	     10.91529275	      0.00000000	      0.00000000	    -40.47514919	     -4.84551678	      2.41463370	     60.86446642	    -20.88605636	     30.07414413	     25.68397013	     74.47022496	      0.00000000	      0.00000000	     70.64652002	     -0.29958739	      9.73177853	     13.08979515	     26.70191898	      0.00000000	      0.00000000
      6.18000000	     41.24674393	      0.19413668	   -177.79374862	      0.42097533	      0.67034879	     -0.60371047	     97.03936512	    -12.91655722	      5.38040086	     63.88158212	      1.11494394	     13.67313494	      0.00000000	      0.00000000	     97.06833756	    -14.15291902	      0.07309736	     63.51043064	      1.10846612	     11.03361646	      0.00000000	      0.00000000	    -40.46330253	     -4.74879256	      2.47448478	     60.88094209	    -21.03957053	     29.82203120	     25.57285202	     79.98147012	      0.00000000	      0.00000000	     70.66672111	     -0.01852047	      8.35159950	     13.38033695	     21.15964548	      0.00000000	      0.00000000
      6.18500000	     41.09998288	      0.08074374	   -177.80125165	      0.42107584	      0.66985147	     -0.60385575	     97.05012830	    -12.87776906	      5.55907716	     64.05793976	      1.11802196	     13.63491965	      0.00000000	      0.00000000	     96.99230887	    -14.22322661	     -0.06742718	     63.65331163	      1.11095987	     10.97470389	      0.00000000	      0.00000000	    -40.50129685	     -4.88448513	      2.38157511	     60.56654991	    -20.42817370	     28.58028001	     25.50350506	     73.68326753	      0.00000000	      0.00000000	     70.58271157	     -0.23509314	      9.62612518	     13.14642302	     24.98756740	      0.00000000	      0.00000000
      6.19000000	     41.00414884	      0.10110179	   -177.76678931	      0.42119542	      0.66917911	     -0.60374767	     97.07805202	    -12.92358828	      5.56421351	     64.24822288	      1.12134303	     13.76679310	      0.00000000	      0.00000000	     97.04303721	    -14.21806493	     -0.01914627	     63.86047473	      1.11457555	     11.14050662	      0.00000000	      0.00000000	    -40.46006429	     -4.81033637	      2.37242484	     60.96259508	    -21.40702221	     31.87769433	     25.69771670	     78.95932406	      0.00000000	      0.00000000	     70.36796679	     -0.30678829	      9.56455815	     13.34413243	     25.13837469	      0.00000000	      0.00000000
      6.19500000	     40.82285736	      0.05614245	   -177.73071952	      0.42121242	      0.66865880	     -0.60377106	     97.03429183	    -12.95216027	      5.65635438	     64.45298667	      1.12491683	     13.83662448	      0.00000000	      0.00000000	     96.98114095	    -14.24784579	     -0.09172522	     64.05299908	      1.11793573	     11.10850002	      0.00000000	      0.00000000	    -40.52099607	     -4.83058711	      2.30850150	     60.73863942	    -21.06497254	     31.03015315	     25.64887960	     76.04466156	      0.00000000	      0.00000000	     70.34983525	     -0.37852536	     10.09735593	     13.12452678	     26.10814944	      0.00000000	      0.00000000
